<svg width="60" height="43" viewBox="0 0 60 43" fill="none" xmlns="http://www.w3.org/2000/svg">
<path d="M51.6582 20.8369C50.9533 16.6222 44.6625 -4.63988 47.6626 0.921077C61.2052 26.0239 68.2796 41.9479 43.6947 41.9479C43.6947 41.9479 46.4655 39.4206 48.0601 35.9159C49.658 32.404 49.6358 28.852 49.6358 28.852C53.8392 28.2094 52.2903 24.6161 51.6582 20.8369Z" fill="#58E191"/>
<path d="M8.34175 20.8369C9.04668 16.6222 15.3374 -4.63988 12.3374 0.921077C-1.20523 26.0239 -8.27962 41.9479 16.3053 41.9479C16.3053 41.9479 13.5345 39.4206 11.9399 35.9159C10.342 32.404 10.3642 28.852 10.3642 28.852C6.16072 28.2094 7.70966 24.6161 8.34175 20.8369Z" fill="#58E191"/>
<path fill-rule="evenodd" clip-rule="evenodd" d="M30 15.6208C23.1187 15.6208 17.6217 21.1582 17.6217 27.887C17.6217 34.6159 23.1187 40.1532 30 40.1532C36.8813 40.1532 42.3783 34.6159 42.3783 27.887C42.3783 21.1582 36.8813 15.6208 30 15.6208ZM15 27.887C15 19.5737 21.7607 12.9169 30 12.9169C38.2393 12.9169 45 19.5737 45 27.887C45 36.2003 38.2393 42.8571 30 42.8571C21.7607 42.8571 15 36.2003 15 27.887Z" fill="#58E191"/>
<path fill-rule="evenodd" clip-rule="evenodd" d="M36.1313 25.9529C35.4696 26.7259 34.4857 27.2159 33.3871 27.2159C31.3947 27.2159 29.7795 25.604 29.7795 23.6155C29.7795 22.8199 30.0381 22.0845 30.476 21.4886C30.3188 21.4771 30.1601 21.4713 30 21.4713C26.4496 21.4713 23.5714 24.3437 23.5714 27.887C23.5714 31.4304 26.4496 34.3028 30 34.3028C33.5504 34.3028 36.4285 31.4304 36.4285 27.887C36.4285 27.213 36.3244 26.5632 36.1313 25.9529Z" fill="#58E191"/>
</svg>
